<mxfile host="app.diagrams.net" modified="2021-05-11T09:19:48.093Z" agent="5.0 (Windows)" etag="c5WbZAC47U5DwKnetOd2" version="14.6.6" type="github">
  <diagram id="qhGSDQWRL4Qz9pdppNj5" name="Page-1">
    <mxGraphModel dx="1422" dy="723" grid="1" gridSize="10" guides="1" tooltips="1" connect="1" arrows="1" fold="1" page="1" pageScale="1" pageWidth="827" pageHeight="1169" math="0" shadow="0">
      <root>
        <mxCell id="0" />
        <mxCell id="1" parent="0" />
        <mxCell id="ByAIwC_Dsw05VIUeqNSV-8" value="&lt;div&gt;&lt;font style=&quot;font-size: 17px&quot;&gt;/navnerom&lt;/font&gt;&lt;/div&gt;&lt;div&gt;&lt;br&gt;&lt;/div&gt;&lt;div&gt;&lt;br&gt;&lt;/div&gt;&lt;div&gt;&lt;br&gt;&lt;/div&gt;&lt;div&gt;&lt;br&gt;&lt;/div&gt;&lt;div&gt;&lt;br&gt;&lt;/div&gt;&lt;div&gt;&lt;br&gt;&lt;/div&gt;&lt;div&gt;&lt;br&gt;&lt;/div&gt;&lt;div&gt;&lt;br&gt;&lt;/div&gt;&lt;div&gt;&lt;br&gt;&lt;/div&gt;&lt;div&gt;&lt;br&gt;&lt;/div&gt;&lt;div&gt;&lt;br&gt;&lt;/div&gt;&lt;div&gt;&lt;br&gt;&lt;/div&gt;&lt;div&gt;&lt;br&gt;&lt;/div&gt;&lt;div&gt;&lt;br&gt;&lt;/div&gt;&lt;div&gt;&lt;br&gt;&lt;/div&gt;&lt;div&gt;&lt;br&gt;&lt;/div&gt;" style="rounded=0;whiteSpace=wrap;html=1;" parent="1" vertex="1">
          <mxGeometry x="99" y="160" width="630" height="270" as="geometry" />
        </mxCell>
        <mxCell id="ByAIwC_Dsw05VIUeqNSV-7" value="" style="edgeStyle=orthogonalEdgeStyle;rounded=0;orthogonalLoop=1;jettySize=auto;html=1;" parent="1" source="ByAIwC_Dsw05VIUeqNSV-1" target="ByAIwC_Dsw05VIUeqNSV-3" edge="1">
          <mxGeometry relative="1" as="geometry" />
        </mxCell>
        <mxCell id="ByAIwC_Dsw05VIUeqNSV-1" value="&lt;div style=&quot;font-size: 14px&quot;&gt;Dette er en ROS 2 node.&lt;br&gt;&lt;/div&gt;" style="ellipse;whiteSpace=wrap;html=1;" parent="1" vertex="1">
          <mxGeometry x="154" y="210" width="230" height="70" as="geometry" />
        </mxCell>
        <mxCell id="ByAIwC_Dsw05VIUeqNSV-3" value="&lt;div style=&quot;font-size: 14px&quot;&gt;&lt;font style=&quot;font-size: 14px&quot;&gt;Dette er et ROS 2 emne.&lt;br&gt;&lt;/font&gt;&lt;/div&gt;" style="rounded=0;whiteSpace=wrap;html=1;" parent="1" vertex="1">
          <mxGeometry x="149" y="330" width="240" height="60" as="geometry" />
        </mxCell>
        <mxCell id="ByAIwC_Dsw05VIUeqNSV-6" value="" style="edgeStyle=orthogonalEdgeStyle;rounded=0;orthogonalLoop=1;jettySize=auto;html=1;" parent="1" source="ByAIwC_Dsw05VIUeqNSV-4" target="ByAIwC_Dsw05VIUeqNSV-5" edge="1">
          <mxGeometry relative="1" as="geometry" />
        </mxCell>
        <mxCell id="ByAIwC_Dsw05VIUeqNSV-4" value="&lt;font style=&quot;font-size: 14px&quot;&gt;/navnerom/navn_på_node&lt;/font&gt;" style="ellipse;whiteSpace=wrap;html=1;" parent="1" vertex="1">
          <mxGeometry x="444" y="210" width="230" height="70" as="geometry" />
        </mxCell>
        <mxCell id="ByAIwC_Dsw05VIUeqNSV-5" value="&lt;div style=&quot;font-size: 14px&quot;&gt;&lt;font style=&quot;font-size: 14px&quot;&gt;/navnerom/navn_på_emne&lt;/font&gt;&lt;/div&gt;" style="rounded=0;whiteSpace=wrap;html=1;" parent="1" vertex="1">
          <mxGeometry x="439" y="330" width="240" height="60" as="geometry" />
        </mxCell>
      </root>
    </mxGraphModel>
  </diagram>
</mxfile>
